<svg width="25" height="17" viewBox="0 0 25 17" fill="none" xmlns="http://www.w3.org/2000/svg">
<path d="M21.4999 5.68524L15.0844 11.9157C13.7393 13.2201 12.3991 14.5246 11.0615 15.8266C10.2059 16.6578 8.74972 16.6578 7.88911 15.8266C7.62664 15.5691 7.36416 15.3141 7.10673 15.0591C5.24923 13.252 3.39676 11.4498 1.54178 9.64027C0.655926 8.78208 0.716497 7.43104 1.54178 6.56059C2.35949 5.69259 3.88385 5.75389 4.71418 6.56059C4.97918 6.8156 5.24165 7.0706 5.49908 7.32561C6.82659 8.61534 8.15411 9.91244 9.47657 11.2022C11.5789 9.15968 13.6762 7.12455 15.776 5.08205L19.7989 1.17361C20.6847 0.31297 22.0753 0.371817 22.9713 1.17361C23.8622 1.97541 23.7991 3.45149 22.9688 4.25819C22.4817 4.73142 21.987 5.21201 21.4999 5.68524Z" fill="white"/>
</svg>
