<svg width="28" height="31" viewBox="0 0 28 31" fill="none" xmlns="http://www.w3.org/2000/svg">
<g filter="url(#filter0_d_175_1823)">
<path d="M22.4336 3.83333H19.5288C19.3113 2.75177 18.7359 1.77996 17.8995 1.08169C17.0631 0.38342 16.0169 0.00139392 14.9373 0L13.0632 0C11.9836 0.00139392 10.9374 0.38342 10.101 1.08169C9.26464 1.77996 8.68922 2.75177 8.47173 3.83333H5.56692C5.3184 3.83333 5.08006 3.9343 4.90433 4.11402C4.72861 4.29375 4.62988 4.5375 4.62988 4.79167C4.62988 5.04583 4.72861 5.28959 4.90433 5.46931C5.08006 5.64903 5.3184 5.75 5.56692 5.75H6.50396V18.2083C6.50544 19.4787 6.99954 20.6966 7.87786 21.5949C8.75618 22.4932 9.94701 22.9985 11.1891 23H16.8114C18.0535 22.9985 19.2443 22.4932 20.1226 21.5949C21.001 20.6966 21.4951 19.4787 21.4965 18.2083V5.75H22.4336C22.6821 5.75 22.9204 5.64903 23.0962 5.46931C23.2719 5.28959 23.3706 5.04583 23.3706 4.79167C23.3706 4.5375 23.2719 4.29375 23.0962 4.11402C22.9204 3.9343 22.6821 3.83333 22.4336 3.83333ZM13.0632 1.91667H14.9373C15.5185 1.91739 16.0853 2.10199 16.5599 2.44513C17.0345 2.78828 17.3937 3.27318 17.5882 3.83333H10.4123C10.6069 3.27318 10.966 2.78828 11.4406 2.44513C11.9152 2.10199 12.482 1.91739 13.0632 1.91667ZM19.6225 18.2083C19.6225 18.9708 19.3263 19.7021 18.7991 20.2413C18.2719 20.7804 17.5569 21.0833 16.8114 21.0833H11.1891C10.4436 21.0833 9.72857 20.7804 9.20139 20.2413C8.6742 19.7021 8.37803 18.9708 8.37803 18.2083V5.75H19.6225V18.2083Z" fill="#FF0000"/>
<path d="M12.2967 15.3327C12.5226 15.3327 12.7393 15.2317 12.899 15.052C13.0588 14.8723 13.1485 14.6285 13.1485 14.3743V8.62435C13.1485 8.37018 13.0588 8.12643 12.899 7.94671C12.7393 7.76698 12.5226 7.66602 12.2967 7.66602C12.0708 7.66602 11.8541 7.76698 11.6943 7.94671C11.5346 8.12643 11.4448 8.37018 11.4448 8.62435V14.3743C11.4448 14.6285 11.5346 14.8723 11.6943 15.052C11.8541 15.2317 12.0708 15.3327 12.2967 15.3327Z" fill="#FF0000"/>
<path d="M15.7039 15.3327C15.9298 15.3327 16.1465 15.2317 16.3063 15.052C16.466 14.8723 16.5558 14.6285 16.5558 14.3743V8.62435C16.5558 8.37018 16.466 8.12643 16.3063 7.94671C16.1465 7.76698 15.9298 7.66602 15.7039 7.66602C15.478 7.66602 15.2613 7.76698 15.1016 7.94671C14.9418 8.12643 14.8521 8.37018 14.8521 8.62435V14.3743C14.8521 14.6285 14.9418 14.8723 15.1016 15.052C15.2613 15.2317 15.478 15.3327 15.7039 15.3327Z" fill="#FF0000"/>
</g>
<defs>
<filter id="filter0_d_175_1823" x="0.629883" y="0" width="26.7407" height="31" filterUnits="userSpaceOnUse" color-interpolation-filters="sRGB">
<feFlood flood-opacity="0" result="BackgroundImageFix"/>
<feColorMatrix in="SourceAlpha" type="matrix" values="0 0 0 0 0 0 0 0 0 0 0 0 0 0 0 0 0 0 127 0" result="hardAlpha"/>
<feOffset dy="4"/>
<feGaussianBlur stdDeviation="2"/>
<feComposite in2="hardAlpha" operator="out"/>
<feColorMatrix type="matrix" values="0 0 0 0 1 0 0 0 0 0 0 0 0 0 0 0 0 0 0.25 0"/>
<feBlend mode="normal" in2="BackgroundImageFix" result="effect1_dropShadow_175_1823"/>
<feBlend mode="normal" in="SourceGraphic" in2="effect1_dropShadow_175_1823" result="shape"/>
</filter>
</defs>
</svg>
