<svg width="17" height="17" viewBox="0 0 17 17" fill="none" xmlns="http://www.w3.org/2000/svg">
<g clip-path="url(#clip0_31_7233)">
<path d="M2.89203 9.8353L2.89189 9.83517L1.9797 8.92226C1.97965 8.92222 1.9796 8.92217 1.97956 8.92212C1.50788 8.45029 1.50712 7.68543 1.9797 7.21357L2.89203 9.8353ZM2.89203 9.8353C3.27973 10.223 3.78915 10.416 4.29604 10.416C4.80293 10.416 5.31236 10.223 5.70005 9.8353L7.24351 8.29184C7.71508 7.82028 7.71709 7.05603 7.24422 6.58316C6.772 6.11093 6.00775 6.11093 5.53553 6.58316L4.29651 7.82217L3.68852 7.21371L3.68839 7.21357M2.89203 9.8353L3.68839 7.21357M3.68839 7.21357C3.21619 6.74137 2.45198 6.74135 1.97975 7.21351L3.68839 7.21357ZM2.33325 3.31713L1.98015 2.96312C1.50707 3.43498 1.50773 4.20029 1.9797 4.67226L2.89189 5.58517L2.89203 5.5853C3.27973 5.973 3.78915 6.16596 4.29604 6.16596C4.80293 6.16596 5.31236 5.973 5.70005 5.5853L7.24351 4.04184C7.71508 3.57028 7.71709 2.80603 7.24422 2.33316C6.772 1.86093 6.00775 1.86093 5.53553 2.33315L4.29651 3.57217L3.68852 2.96371L3.68839 2.96357C3.21617 2.49135 2.45192 2.49135 1.9797 2.96357L2.33325 3.31713ZM2.33325 3.31713C2.05629 3.59337 2.05629 4.04175 2.33325 4.31871V3.31713ZM15.2292 12.25C15.2053 12.25 15.1833 12.2414 15.1655 12.2236L14.6768 11.7349C14.213 11.2711 13.9583 10.6573 13.9583 10.001V1.77083C13.9583 1.07018 14.5285 0.5 15.2292 0.5C15.9298 0.5 16.5 1.07018 16.5 1.77083V10.001C16.5 10.6566 16.2453 11.2711 15.7816 11.7349L15.2928 12.2236C15.275 12.2414 15.253 12.25 15.2292 12.25ZM2.83333 0.5H9.20833C10.4969 0.5 11.5417 1.54477 11.5417 2.83333V12.25H5.66667C4.21682 12.25 3.04167 13.4251 3.04167 14.875V15.2292C3.04167 15.9745 2.40055 16.5696 1.63818 16.4933C1.00763 16.4298 0.5 15.835 0.5 15.1279V2.83333C0.5 1.54477 1.54477 0.5 2.83333 0.5ZM12.0417 16.5H5.23257C5.37857 16.1035 5.45833 15.6752 5.45833 15.2292V14.875C5.45833 14.7601 5.55181 14.6667 5.66667 14.6667H13.4583C13.5732 14.6667 13.6667 14.7601 13.6667 14.875C13.6667 15.7726 12.9392 16.5 12.0417 16.5Z" stroke="#041E5E"/>
</g>
<defs>
<clipPath id="clip0_31_7233">
<rect width="17" height="17" fill="white"/>
</clipPath>
</defs>
</svg>
