<svg width="17" height="17" viewBox="0 0 17 17" fill="none" xmlns="http://www.w3.org/2000/svg">
<path d="M15.0833 9.91667V10.4167H15.5833H16.5V14.875C16.5 15.7704 15.7704 16.5 14.875 16.5H10.625C9.72956 16.5 9 15.7704 9 14.875V10.4167H9.91667H10.4167V9.91667V9.20833C10.4167 7.92189 11.4636 6.875 12.75 6.875C14.0364 6.875 15.0833 7.92189 15.0833 9.20833V9.91667ZM14.1667 10.4167H14.6667V9.91667V9.20833C14.6667 8.1509 13.8074 7.29167 12.75 7.29167C11.6926 7.29167 10.8333 8.1509 10.8333 9.20833V9.91667V10.4167H11.3333H14.1667ZM13.4583 14.6667H13.9583V14.1667V12.75V12.25H13.4583H12.0417H11.5417V12.75V14.1667V14.6667H12.0417H13.4583ZM5.66667 8C3.59893 8 1.91667 6.31773 1.91667 4.25C1.91667 2.18227 3.59893 0.5 5.66667 0.5C7.7344 0.5 9.41667 2.18227 9.41667 4.25C9.41667 6.31773 7.7344 8 5.66667 8ZM6.58333 10.4167V14.875C6.58333 15.4527 6.70546 16.0026 6.92478 16.5H0.5V13.4583C0.5 11.7816 1.86493 10.4167 3.54167 10.4167H6.58333Z" stroke="#041E5E"/>
</svg>
