<svg width="17" height="17" viewBox="0 0 17 17" fill="none" xmlns="http://www.w3.org/2000/svg">
<path d="M11.1868 4.75214L11.1867 4.75198C11.1056 4.67191 11.1039 4.5401 11.1848 4.45748C11.2662 4.37582 11.3969 4.37446 11.4805 4.45615C11.4807 4.45628 11.4808 4.45641 11.4809 4.45654L12.3987 5.36295L13.25 6.2038V5.00721V0.708333C13.25 0.593149 13.3431 0.5 13.4583 0.5C13.5736 0.5 13.6667 0.593149 13.6667 0.708333V4.99517V6.17941L14.5154 5.3535L15.4383 4.45533L15.4391 4.4546C15.5198 4.37575 15.6506 4.37545 15.7332 4.45949C15.8134 4.54254 15.8109 4.67365 15.729 4.7531L15.7282 4.75379L14.1444 6.29584L14.1444 6.29581L14.1399 6.30031C13.7604 6.67929 13.1325 6.6789 12.7471 6.29393L12.7452 6.29206L11.1868 4.75214ZM0.500033 6.375L0.500025 6.37297C0.493346 4.72448 1.85297 3.33029 3.54079 3.33333H3.54169H8.50001C8.61525 3.33333 8.70835 3.42648 8.70835 3.54167C8.70835 3.65685 8.61525 3.75 8.50001 3.75H3.54169C2.76498 3.75 2.06542 4.08941 1.58584 4.62577L1.28721 4.95975L1.58654 5.2931C2.07863 5.84113 2.78901 6.16667 3.54169 6.16667H9.23011C9.30394 6.27006 9.38858 6.37298 9.48775 6.47113L9.48803 6.47141L11.0356 8.00063C12.2949 9.31509 14.5736 9.32706 15.8351 8.02184L16.4553 7.41798C16.4845 7.53818 16.5 7.66321 16.5 7.79167V14.875C16.5 15.7704 15.7704 16.5 14.875 16.5H3.54169C1.86496 16.5 0.500029 15.1351 0.500029 13.4583L0.500033 6.375ZM14.6667 11.3333C14.6667 10.4707 13.9668 9.77083 13.1042 9.77083C12.2415 9.77083 11.5417 10.4707 11.5417 11.3333C11.5417 12.196 12.2415 12.8958 13.1042 12.8958C13.9668 12.8958 14.6667 12.196 14.6667 11.3333Z" stroke="#041E5E"/>
</svg>
