<svg width="17" height="21" viewBox="0 0 17 21" fill="none" xmlns="http://www.w3.org/2000/svg">
<path d="M14.8983 5.19264L14.8979 5.19229L11.9369 2.14239L14.8983 5.19264ZM14.8983 5.19264C15.2788 5.58388 15.5943 6.02432 15.8423 6.5H11.05C10.8708 6.5 10.7 6.34507 10.7 6.125V1.19051M14.8983 5.19264L10.7 1.19051M10.7 1.19051C11.1481 1.44193 11.5645 1.75973 11.9365 2.14204L10.7 1.19051ZM0.5 16.625V14.5H3.825C4.28278 14.5 4.70366 14.2643 4.95143 13.8831L4.95188 13.8824L5.35721 13.2565L6.86448 16.3604L6.86476 16.361C7.07583 16.7942 7.49816 17.0889 7.98269 17.1226C8.02201 17.126 8.05753 17.1259 8.0719 17.1259L8.075 17.1259C8.53081 17.1259 8.95339 16.892 9.20188 16.5083L9.2019 16.5083L10.5017 14.5009H13.6C14.3589 14.5009 14.95 13.8713 14.95 13.1259C14.95 12.3805 14.3589 11.7509 13.6 11.7509H9.775C9.31722 11.7509 8.89634 11.9866 8.64857 12.3678L8.64812 12.3685L8.24279 12.9943L6.73552 9.89046L6.73524 9.88987C6.52389 9.45612 6.10074 9.16121 5.61541 9.12815C5.11792 9.08687 4.6559 9.34386 4.39791 9.74291L3.09834 11.75H0.5V4.375C0.5 2.22501 2.19626 0.5 4.25 0.5H8V6.125C8 7.83463 9.35439 9.25 11.05 9.25H16.5V16.625C16.5 18.775 14.8037 20.5 12.75 20.5H4.25C2.19626 20.5 0.5 18.775 0.5 16.625Z" stroke="#041E5E"/>
</svg>
