<svg width="15" height="15" viewBox="0 0 15 15" fill="none" xmlns="http://www.w3.org/2000/svg">
<path d="M7.70192 5C7.95439 5 8.19651 4.90123 8.37503 4.72541C8.55356 4.5496 8.65385 4.31114 8.65385 4.0625V3.5625C8.65385 3.11495 8.83437 2.68573 9.15571 2.36926C9.47704 2.05279 9.91287 1.875 10.3673 1.875H11.3827C11.8371 1.875 12.273 2.05279 12.5943 2.36926C12.9156 2.68573 13.0962 3.11495 13.0962 3.5625V11.4375C13.0962 11.8851 12.9156 12.3143 12.5943 12.6307C12.273 12.9472 11.8371 13.125 11.3827 13.125H10.3673C9.91287 13.125 9.47704 12.9472 9.15571 12.6307C8.83437 12.3143 8.65385 11.8851 8.65385 11.4375V10.9375C8.65385 10.6889 8.55356 10.4504 8.37503 10.2746C8.19651 10.0988 7.95439 10 7.70192 10C7.44946 10 7.20733 10.0988 7.02881 10.2746C6.85029 10.4504 6.75 10.6889 6.75 10.9375V11.4375C6.75101 12.382 7.13244 13.2876 7.8106 13.9555C8.48876 14.6234 9.40825 14.999 10.3673 15H11.3827C12.3418 14.999 13.2612 14.6234 13.9394 13.9555C14.6176 13.2876 14.999 12.382 15 11.4375V3.5625C14.999 2.61797 14.6176 1.71241 13.9394 1.04453C13.2612 0.376645 12.3418 0.000992775 11.3827 0H10.3673C9.40825 0.000992775 8.48876 0.376645 7.8106 1.04453C7.13244 1.71241 6.75101 2.61797 6.75 3.5625V4.0625C6.75 4.31114 6.85029 4.5496 7.02881 4.72541C7.20733 4.90123 7.44946 5 7.70192 5Z" fill="#FF0000"/>
<path d="M0.635633 8.98498L3.48878 11.7365C3.57546 11.8201 3.67836 11.8864 3.79161 11.9316C3.90485 11.9768 4.02622 12 4.14878 12C4.27134 12 4.3927 11.9767 4.50592 11.9314C4.61914 11.8861 4.72201 11.8198 4.80865 11.7362C4.98364 11.5674 5.08191 11.3384 5.08185 11.0997C5.08182 10.9815 5.05765 10.8645 5.01072 10.7553C4.9638 10.6461 4.89503 10.5469 4.80834 10.4634L2.68621 8.41678L10.3168 8.39998C10.5643 8.39998 10.8017 8.30517 10.9767 8.13639C11.1517 7.96761 11.25 7.73869 11.25 7.5C11.25 7.26131 11.1517 7.03239 10.9767 6.86361C10.8017 6.69483 10.5643 6.60002 10.3168 6.60002L2.65324 6.61682L4.81021 4.53665C4.98527 4.3679 5.08366 4.13898 5.08372 3.90027C5.08378 3.66156 4.9855 3.43261 4.81052 3.26377C4.63553 3.09494 4.39817 3.00006 4.15065 3C3.90312 2.99994 3.66571 3.09472 3.49064 3.26347L0.6375 6.01503C0.229605 6.409 0.000349998 6.94289 9.53674e-07 7.49963C-0.000349045 8.05637 0.228233 8.59052 0.635633 8.98498Z" fill="#FF0000"/>
</svg>
