<svg width="17" height="17" viewBox="0 0 17 17" fill="none" xmlns="http://www.w3.org/2000/svg">
<path d="M12.5321 12.6611L12.532 12.6573C12.5152 10.3958 10.6303 8.5754 8.41451 8.62886C6.27057 8.68058 4.50729 10.4706 4.49229 12.6576H4.49228V12.6611V16.3849H2.17638C1.28615 16.3849 0.564453 15.6632 0.564453 14.773V8.36258V8.36245C0.564389 8.12261 0.659219 7.89248 0.828223 7.72233L0.834614 7.7159L0.840767 7.70923L6.81256 1.24395C6.85367 1.19945 6.89666 1.15649 6.9414 1.11512C7.8807 0.247041 9.34586 0.304736 10.214 1.24401L10.2141 1.24416L16.1965 7.71161L16.1964 7.7117L16.2043 7.71987C16.3683 7.8893 16.46 8.11593 16.4599 8.3518V8.35202V14.773C16.4599 15.6632 15.7382 16.3849 14.848 16.3849H12.5321L12.5321 12.6611Z" stroke="#041E5E"/>
<path d="M6.78516 12.776C6.78516 11.8858 7.50685 11.1641 8.39708 11.1641C9.28732 11.1641 10.009 11.8858 10.009 12.776V16.4998H6.78516V12.776Z" stroke="#041E5E"/>
</svg>
