<svg width="17" height="17" viewBox="0 0 17 17" fill="none" xmlns="http://www.w3.org/2000/svg">
<path d="M7 16.5C7 16.6326 6.92625 16.7598 6.79497 16.8536C6.6637 16.9473 6.48565 17 6.3 17H0.7C0.514348 17 0.336301 16.9473 0.205025 16.8536C0.0737498 16.7598 0 16.6326 0 16.5C0 16.3674 0.0737498 16.2402 0.205025 16.1464C0.336301 16.0527 0.514348 16 0.7 16H6.3C6.48565 16 6.6637 16.0527 6.79497 16.1464C6.92625 16.2402 7 16.3674 7 16.5Z" fill="#041E5E"/>
<path d="M0.75 14H5.25C5.44891 14 5.63968 13.9473 5.78033 13.8536C5.92098 13.7598 6 13.6326 6 13.5C6 13.3674 5.92098 13.2402 5.78033 13.1464C5.63968 13.0527 5.44891 13 5.25 13H0.75C0.551088 13 0.360322 13.0527 0.21967 13.1464C0.0790176 13.2402 0 13.3674 0 13.5C0 13.6326 0.0790176 13.7598 0.21967 13.8536C0.360322 13.9473 0.551088 14 0.75 14Z" fill="#041E5E"/>
<path d="M0.666667 11H3.33333C3.51014 11 3.67971 10.9473 3.80474 10.8536C3.92976 10.7598 4 10.6326 4 10.5C4 10.3674 3.92976 10.2402 3.80474 10.1464C3.67971 10.0527 3.51014 10 3.33333 10H0.666667C0.489856 10 0.320286 10.0527 0.195262 10.1464C0.0702379 10.2402 0 10.3674 0 10.5C0 10.6326 0.0702379 10.7598 0.195262 10.8536C0.320286 10.9473 0.489856 11 0.666667 11Z" fill="#041E5E"/>
<path d="M3.54086 8C3.97037 7.99869 4.3936 8.10308 4.77324 8.30396C5.15315 8.50499 5.47771 8.79646 5.71828 9.15264C5.95885 9.50882 6.10802 9.91875 6.15262 10.3462C6.17934 10.6023 6.16805 10.8599 6.11993 11.1109C6.29743 11.1975 6.465 11.3043 6.61923 11.4295C6.90725 11.6633 7.14207 11.9559 7.30798 12.2878C7.47389 12.6196 7.56708 12.983 7.58132 13.3537C7.58891 13.5513 7.57397 13.7486 7.53717 13.9417C7.70638 14.0234 7.86664 14.1236 8.01496 14.2406C8.29939 14.4651 8.53353 14.7467 8.70225 15.0674C8.87097 15.388 8.97051 15.7405 8.99442 16.102C9.00288 16.2299 9.00181 16.3578 8.99137 16.4849C10.9338 16.3655 12.7728 15.5409 14.1569 14.1569C15.6571 12.6566 16.5 10.6217 16.5 8.5C16.5 6.37827 15.6571 4.34344 14.1569 2.84315C12.6566 1.34285 10.6217 0.5 8.5 0.5C6.37827 0.5 4.34344 1.34285 2.84315 2.84315C1.45906 4.22723 0.634516 6.06625 0.515085 8.00874C0.577631 8.00357 0.640422 8.00065 0.703332 8.00002L0.708333 7.99998V8H3.54086ZM3.54086 8H3.54167V8.5L3.53997 8C3.54027 8 3.54057 8 3.54086 8ZM4.53939 8.74591C4.84674 8.90854 5.10932 9.14434 5.30394 9.43249C5.49856 9.72064 5.61924 10.0523 5.65532 10.3981C5.67399 10.577 5.66972 10.7568 5.64314 10.9333L4.53939 8.74591ZM5.97601 11.5989C6.09165 11.6613 6.20152 11.7344 6.30409 11.8177C6.53689 12.0067 6.72667 12.2432 6.86076 12.5114C6.99486 12.7796 7.07018 13.0733 7.08169 13.3729C7.08676 13.5049 7.07939 13.6367 7.05989 13.7666L5.97601 11.5989ZM9.77066 11.4793L9.77071 11.4794C9.9973 11.7059 10.3046 11.8332 10.625 11.8332C10.9454 11.8332 11.2527 11.7059 11.4793 11.4794L11.4794 11.4793C11.7059 11.2527 11.8332 10.9454 11.8332 10.625C11.8332 10.3046 11.7059 9.9973 11.4794 9.77071L11.4793 9.77066L9.70833 7.99964V4.95833C9.70833 4.63786 9.58103 4.33052 9.35442 4.10391C9.12781 3.87731 8.82047 3.75 8.5 3.75C8.17953 3.75 7.87219 3.87731 7.64558 4.10391C7.41897 4.33052 7.29167 4.63786 7.29167 4.95833V8.5V8.50011C7.29174 8.82052 7.41907 9.1278 7.64566 9.35435C7.64567 9.35436 7.64569 9.35438 7.64571 9.3544L9.77066 11.4793Z" stroke="#041E5E"/>
</svg>
