<svg width="17" height="23" viewBox="0 0 17 23" fill="none" xmlns="http://www.w3.org/2000/svg">
<path d="M13.6665 5.66668C13.6665 8.52016 11.3533 10.8334 8.49981 10.8334C5.64633 10.8334 3.33313 8.52016 3.33313 5.66668C3.33313 2.8132 5.64633 0.5 8.49981 0.5C11.3533 0.5 13.6665 2.8132 13.6665 5.66668Z" stroke="#041E5E"/>
<mask id="path-2-inside-1_31_7227" fill="white">
<path d="M8.50002 13.2227C3.80774 13.2279 0.00522397 17.0304 0 21.7227C0 22.2443 0.422832 22.6671 0.944432 22.6671H16.0556C16.5772 22.6671 17 22.2443 17 21.7227C16.9948 17.0304 13.1923 13.2278 8.50002 13.2227Z"/>
</mask>
<path d="M8.50002 13.2227L8.50113 12.2227L8.49891 12.2227L8.50002 13.2227ZM0 21.7227L-1 21.7216V21.7227H0ZM17 21.7227H18L18 21.7216L17 21.7227ZM8.49891 12.2227C3.25522 12.2285 -0.994161 16.4779 -0.999999 21.7216L0.999999 21.7238C1.00461 17.5829 4.36027 14.2273 8.50114 14.2227L8.49891 12.2227ZM-1 21.7227C-1 22.7966 -0.129453 23.6671 0.944432 23.6671V21.6671C0.975117 21.6671 1 21.692 1 21.7227H-1ZM0.944432 23.6671H16.0556V21.6671H0.944432V23.6671ZM16.0556 23.6671C17.1295 23.6671 18 22.7966 18 21.7227H16C16 21.692 16.0249 21.6671 16.0556 21.6671V23.6671ZM18 21.7216C17.9942 16.4779 13.7448 12.2284 8.50113 12.2227L8.49892 14.2227C12.6398 14.2272 15.9954 17.5829 16 21.7238L18 21.7216Z" fill="#041E5E" mask="url(#path-2-inside-1_31_7227)"/>
</svg>
