<svg width="18" height="15" viewBox="0 0 18 15" fill="none" xmlns="http://www.w3.org/2000/svg">
<path d="M7.85714 8.57143C7.85714 8.96643 7.53714 9.28571 7.14286 9.28571H3.57143C1.60214 9.28571 0 7.68357 0 5.71429V3.57143C0 1.60214 1.60214 0 3.57143 0H13.5714C15.5407 0 17.1429 1.60214 17.1429 3.57143C17.1429 3.96643 16.8236 4.28571 16.4286 4.28571C16.0336 4.28571 15.7143 3.96643 15.7143 3.57143C15.7143 2.39 14.7529 1.42857 13.5714 1.42857H3.57143C2.39 1.42857 1.42857 2.39 1.42857 3.57143V5.71429C1.42857 6.89571 2.39 7.85714 3.57143 7.85714H7.14286C7.53714 7.85714 7.85714 8.17643 7.85714 8.57143ZM6.21929 3.06643C5.94 2.78714 5.48857 2.78714 5.20929 3.06643L4.64286 3.63286L4.07643 3.06643C3.79714 2.78714 3.34571 2.78714 3.06643 3.06643C2.78714 3.34571 2.78714 3.79714 3.06643 4.07643L3.63286 4.64286L3.06643 5.20929C2.78714 5.48857 2.78714 5.94 3.06643 6.21929C3.20571 6.35857 3.38857 6.42857 3.57143 6.42857C3.75429 6.42857 3.93714 6.35857 4.07643 6.21929L4.64286 5.65286L5.20929 6.21929C5.34857 6.35857 5.53143 6.42857 5.71429 6.42857C5.89714 6.42857 6.08 6.35857 6.21929 6.21929C6.49857 5.94 6.49857 5.48857 6.21929 5.20929L5.65286 4.64286L6.21929 4.07643C6.49857 3.79714 6.49857 3.34571 6.21929 3.06643ZM10.505 4.07643C10.7843 3.79714 10.7843 3.34571 10.505 3.06643C10.2257 2.78714 9.77429 2.78714 9.495 3.06643L8.92857 3.63286L8.36214 3.06643C8.08286 2.78714 7.63143 2.78714 7.35214 3.06643C7.07286 3.34571 7.07286 3.79714 7.35214 4.07643L7.91857 4.64286L7.35214 5.20929C7.07286 5.48857 7.07286 5.94 7.35214 6.21929C7.49143 6.35857 7.67429 6.42857 7.85714 6.42857C8.04 6.42857 8.22286 6.35857 8.36214 6.21929L10.505 4.07643ZM17.1429 10.7143V12.1429C17.1429 13.7186 15.8614 15 14.2857 15H11.4286C9.85286 15 8.57143 13.7186 8.57143 12.1429V10.7143C8.57143 9.66143 9.15 8.75 10 8.25429V7.14286C10 5.56714 11.2814 4.28571 12.8571 4.28571C14.4329 4.28571 15.7143 5.56714 15.7143 7.14286V8.25429C16.5643 8.75 17.1429 9.66143 17.1429 10.7143ZM11.4286 7.85714H14.2857V7.14286C14.2857 6.355 13.645 5.71429 12.8571 5.71429C12.0693 5.71429 11.4286 6.355 11.4286 7.14286V7.85714ZM15.7143 10.7143C15.7143 9.92643 15.0736 9.28571 14.2857 9.28571H11.4286C10.6407 9.28571 10 9.92643 10 10.7143V12.1429C10 12.9307 10.6407 13.5714 11.4286 13.5714H14.2857C15.0736 13.5714 15.7143 12.9307 15.7143 12.1429V10.7143ZM12.8571 10.3571C12.2657 10.3571 11.7857 10.8371 11.7857 11.4286C11.7857 12.02 12.2657 12.5 12.8571 12.5C13.4486 12.5 13.9286 12.02 13.9286 11.4286C13.9286 10.8371 13.4486 10.3571 12.8571 10.3571Z" fill="#041E5E"/>
</svg>
