<svg width="14" height="14" viewBox="0 0 14 14" fill="none" xmlns="http://www.w3.org/2000/svg">
<path d="M6.4739 2.21878H3.15678C2.05758 2.21878 1.1665 3.10983 1.1665 4.20899V10.8431C1.1665 11.9422 2.05758 12.8333 3.15678 12.8333H9.79102C10.8902 12.8333 11.7813 11.9422 11.7813 10.8431L11.7813 7.52604M4.48363 9.51621L6.89738 9.02987C7.02551 9.00406 7.14317 8.94096 7.23557 8.84851L12.639 3.4423C12.8981 3.18311 12.8979 2.76296 12.6386 2.50397L11.494 1.36067C11.2348 1.10179 10.8148 1.10197 10.5559 1.36106L5.15189 6.76783C5.05967 6.8601 4.9967 6.97751 4.97086 7.10538L4.48363 9.51621Z" stroke="white" stroke-width="1.5" stroke-linecap="round" stroke-linejoin="round"/>
</svg>
