<svg width="14" height="14" viewBox="0 0 14 14" fill="none" xmlns="http://www.w3.org/2000/svg">
<path d="M6.47414 2.21878H3.15702C2.05782 2.21878 1.16675 3.10983 1.16675 4.20899V10.8431C1.16675 11.9422 2.05782 12.8333 3.15702 12.8333H9.79126C10.8905 12.8333 11.7815 11.9422 11.7815 10.8431L11.7815 7.52604M4.48387 9.51621L6.89762 9.02987C7.02576 9.00406 7.14341 8.94096 7.23582 8.84851L12.6392 3.4423C12.8983 3.18311 12.8981 2.76296 12.6388 2.50397L11.4942 1.36067C11.235 1.10179 10.8151 1.10197 10.5561 1.36106L5.15214 6.76783C5.05991 6.8601 4.99694 6.97751 4.9711 7.10538L4.48387 9.51621Z" stroke="white" stroke-width="1.5" stroke-linecap="round" stroke-linejoin="round"/>
</svg>
