<svg width="21" height="22" viewBox="0 0 21 22" fill="none" xmlns="http://www.w3.org/2000/svg">
<g clip-path="url(#clip0_55_1192)">
<path d="M10.307 2.95703H3.846C3.35641 2.95703 2.88687 3.15152 2.54068 3.49771C2.19449 3.8439 2 4.31344 2 4.80303V17.724C2 18.2136 2.19449 18.6832 2.54068 19.0294C2.88687 19.3755 3.35641 19.57 3.846 19.57H16.767C17.2566 19.57 17.7261 19.3755 18.0723 19.0294C18.4185 18.6832 18.613 18.2136 18.613 17.724V11.264" stroke="#0268BC" stroke-width="2" stroke-linecap="round" stroke-linejoin="round"/>
<path d="M17.229 1.5729C17.5967 1.20853 18.0939 1.00466 18.6116 1.00586C19.1293 1.00707 19.6254 1.21327 19.9915 1.57934C20.3576 1.94542 20.5638 2.44158 20.565 2.95929C20.5662 3.477 20.3623 3.97412 19.998 4.3419L11.23 13.1099L7.53796 14.0329L8.46096 10.3409L17.229 1.5729Z" stroke="#0268BC" stroke-width="2" stroke-linecap="round" stroke-linejoin="round"/>
</g>
<defs>
<clipPath id="clip0_55_1192">
<rect width="21" height="22" fill="white"/>
</clipPath>
</defs>
</svg>
