<svg width="28" height="24" viewBox="0 0 28 24" fill="none" xmlns="http://www.w3.org/2000/svg">
<path d="M13.6319 0.47309C14.0499 0.148003 14.6536 0.148003 15.0716 0.47309L27.332 10.8759C27.7964 11.2938 27.8429 11.9905 27.4714 12.4549C27.0534 12.9193 26.3568 12.9657 25.8924 12.5942L24.7778 11.6189V20.2569C24.7778 22.3468 23.1059 23.9722 21.0625 23.9722H7.6875C5.59766 23.9722 3.97222 22.3468 3.97222 20.2569V11.6189L2.8112 12.5942C2.34679 12.9657 1.65017 12.9193 1.2322 12.4549C0.860677 11.9905 0.907118 11.2938 1.37153 10.8759L13.6319 0.47309ZM6.20139 9.71484V20.2569C6.20139 21.0929 6.85156 21.7431 7.6875 21.7431H21.0625C21.852 21.7431 22.5486 21.0929 22.5486 20.2569V9.71484L14.375 2.79514L6.20139 9.71484Z" fill="#0269BD"/>
</svg>
