<svg width="16" height="16" viewBox="0 0 16 16" fill="none" xmlns="http://www.w3.org/2000/svg">
<path d="M2.66667 0H13.3333C14.0406 0 14.7189 0.280952 15.219 0.781049C15.719 1.28115 16 1.95942 16 2.66667V10.6667C16 11.3739 15.719 12.0522 15.219 12.5523C14.7189 13.0524 14.0406 13.3333 13.3333 13.3333H11.4L8.43267 15.842C8.31229 15.9439 8.1597 15.9998 8.002 15.9998C7.8443 15.9998 7.69171 15.9439 7.57133 15.842L4.6 13.3333H2.66667C1.95942 13.3333 1.28115 13.0524 0.781049 12.5523C0.280951 12.0522 0 11.3739 0 10.6667V2.66667C0 1.95942 0.280951 1.28115 0.781049 0.781049C1.28115 0.280952 1.95942 0 2.66667 0ZM1.33333 10.6667C1.33333 11.0203 1.47381 11.3594 1.72386 11.6095C1.97391 11.8595 2.31304 12 2.66667 12H4.6C4.91514 12.0001 5.22006 12.1118 5.46067 12.3153L8 14.46L10.538 12.3153C10.779 12.1115 11.0844 11.9998 11.4 12H13.3333C13.687 12 14.0261 11.8595 14.2761 11.6095C14.5262 11.3594 14.6667 11.0203 14.6667 10.6667V2.66667C14.6667 2.31304 14.5262 1.97391 14.2761 1.72386C14.0261 1.47381 13.687 1.33333 13.3333 1.33333H2.66667C2.31304 1.33333 1.97391 1.47381 1.72386 1.72386C1.47381 1.97391 1.33333 2.31304 1.33333 2.66667V10.6667Z" fill="#026ABD"/>
<path d="M9.33333 4.66659H6C5.82319 4.66659 5.65362 4.59635 5.5286 4.47132C5.40357 4.3463 5.33333 4.17673 5.33333 3.99992C5.33333 3.82311 5.40357 3.65354 5.5286 3.52851C5.65362 3.40349 5.82319 3.33325 6 3.33325H9.33333C9.51014 3.33325 9.67971 3.40349 9.80474 3.52851C9.92976 3.65354 10 3.82311 10 3.99992C10 4.17673 9.92976 4.3463 9.80474 4.47132C9.67971 4.59635 9.51014 4.66659 9.33333 4.66659Z" fill="#026ABD"/>
<path d="M4.66667 6H11.3333C11.5101 6 11.6797 6.07024 11.8047 6.19526C11.9298 6.32029 12 6.48986 12 6.66667C12 6.84348 11.9298 7.01305 11.8047 7.13807C11.6797 7.2631 11.5101 7.33333 11.3333 7.33333H4.66667C4.48986 7.33333 4.32029 7.2631 4.19526 7.13807C4.07024 7.01305 4 6.84348 4 6.66667C4 6.48986 4.07024 6.32029 4.19526 6.19526C4.32029 6.07024 4.48986 6 4.66667 6Z" fill="#026ABD"/>
<path d="M4.66667 8.66675H11.3333C11.5101 8.66675 11.6797 8.73699 11.8047 8.86201C11.9298 8.98703 12 9.1566 12 9.33341C12 9.51023 11.9298 9.67979 11.8047 9.80482C11.6797 9.92984 11.5101 10.0001 11.3333 10.0001H4.66667C4.48986 10.0001 4.32029 9.92984 4.19526 9.80482C4.07024 9.67979 4 9.51023 4 9.33341C4 9.1566 4.07024 8.98703 4.19526 8.86201C4.32029 8.73699 4.48986 8.66675 4.66667 8.66675Z" fill="#026ABD"/>
</svg>
