<svg width="31" height="28" viewBox="0 0 31 28" fill="none" xmlns="http://www.w3.org/2000/svg">
<path d="M16.8615 0.8509C16.8615 0.422214 17.2902 -0.00647163 17.7189 -0.00647163C18.2012 -0.00647163 18.6299 0.422214 18.6299 0.8509V1.76186C22.9167 2.19054 26.3462 5.83437 26.3462 10.282V11.8896C26.3462 14.1937 27.2572 16.4443 28.9183 18.1055L29.0791 18.2663C29.5078 18.695 29.7757 19.2844 29.7757 19.9274C29.7757 21.2671 28.704 22.2852 27.3643 22.2852H8.12706C6.78742 22.2852 5.76929 21.2671 5.76929 19.9274C5.76929 19.2844 5.98363 18.695 6.41232 18.2663L6.57307 18.1055C8.23423 16.4443 9.19877 14.1937 9.19877 11.8896V10.282C9.19877 5.83437 12.5747 2.19054 16.9151 1.76186L16.8615 0.8509ZM17.7189 3.42302C13.9679 3.42302 10.8599 6.53099 10.8599 10.282V11.8896C10.8599 14.676 9.78822 17.3553 7.80555 19.338L7.64479 19.4452C7.53762 19.6059 7.43044 19.7667 7.43044 19.9274C7.43044 20.3025 7.75196 20.5705 8.12706 20.5705H27.3643C27.7394 20.5705 28.061 20.3025 28.061 19.9274C28.061 19.7667 27.9538 19.6059 27.8466 19.4452L27.6859 19.338C25.7032 17.3553 24.6315 14.676 24.6315 11.8896V10.282C24.6315 6.53099 21.5235 3.42302 17.7189 3.42302ZM17.7189 25.7147C18.4691 25.7147 19.1121 25.286 19.3801 24.5894C19.5408 24.1607 20.0231 23.8928 20.4518 24.0535C20.8805 24.2143 21.1484 24.6966 20.9876 25.1788C20.5054 26.5185 19.2193 27.4294 17.7189 27.4294C16.2721 27.4294 14.986 26.5185 14.5038 25.1788C14.343 24.6966 14.6109 24.2143 15.0396 24.0535C15.4683 23.8928 15.9506 24.1607 16.1113 24.5894C16.3793 25.286 17.0223 25.7147 17.7189 25.7147Z" fill="#026DBF"/>
<circle cx="6.92308" cy="9.61534" r="6.05769" fill="#026DBF" stroke="white" stroke-width="1.73077"/>
</svg>
