<svg width="21" height="24" viewBox="0 0 21 24" fill="none" xmlns="http://www.w3.org/2000/svg">
<path d="M10.4028 12.0833C7.10547 12.0833 4.45833 9.4362 4.45833 6.13889C4.45833 2.88802 7.10547 0.194444 10.4028 0.194444C13.6536 0.194444 16.3472 2.88802 16.3472 6.13889C16.3472 9.4362 13.6536 12.0833 10.4028 12.0833ZM10.4028 1.68055C7.94141 1.68055 5.94444 3.72396 5.94444 6.13889C5.94444 8.60026 7.94141 10.5972 10.4028 10.5972C12.8177 10.5972 14.8611 8.60026 14.8611 6.13889C14.8611 3.72396 12.8177 1.68055 10.4028 1.68055ZM12.7248 14.3125C17.1832 14.3125 20.8056 17.9349 20.8056 22.3932C20.8056 23.2756 20.0625 23.9722 19.1801 23.9722H1.57899C0.696615 23.9722 0 23.2756 0 22.3932C0 17.9349 3.57595 14.3125 8.03429 14.3125H12.7248ZM19.1801 22.4861C19.2266 22.4861 19.3194 22.4397 19.3194 22.3932C19.3194 18.7708 16.3472 15.7986 12.7248 15.7986H8.03429C4.41189 15.7986 1.48611 18.7708 1.48611 22.3932C1.48611 22.4397 1.53255 22.4861 1.57899 22.4861H19.1801Z" fill="#0269BD"/>
</svg>
