<svg width="21" height="17" viewBox="0 0 21 17" fill="none" xmlns="http://www.w3.org/2000/svg">
<path opacity="0.5" d="M0 0.909722C0 0.538194 0.325087 0.166666 0.743056 0.166666H20.0625C20.434 0.166666 20.8056 0.538194 20.8056 0.909722C20.8056 1.32769 20.434 1.65278 20.0625 1.65278H0.743056C0.325087 1.65278 0 1.32769 0 0.909722ZM2.97222 8.34028C2.97222 7.96875 3.29731 7.59722 3.71528 7.59722H17.0903C17.4618 7.59722 17.8333 7.96875 17.8333 8.34028C17.8333 8.75825 17.4618 9.08333 17.0903 9.08333H3.71528C3.29731 9.08333 2.97222 8.75825 2.97222 8.34028ZM12.6319 16.5139H8.17361C7.75564 16.5139 7.43056 16.1888 7.43056 15.7708C7.43056 15.3993 7.75564 15.0278 8.17361 15.0278H12.6319C13.0035 15.0278 13.375 15.3993 13.375 15.7708C13.375 16.1888 13.0035 16.5139 12.6319 16.5139Z" fill="#3B4C68"/>
</svg>
