<svg width="16" height="17" viewBox="0 0 16 17" fill="none" xmlns="http://www.w3.org/2000/svg">
<path fill-rule="evenodd" clip-rule="evenodd" d="M8.07927 0.734375C6.53195 0.734375 5.01937 1.19321 3.73282 2.05286C2.44627 2.9125 1.44352 4.13435 0.851384 5.5639C0.259249 6.99344 0.10432 8.56646 0.406188 10.0841C0.708055 11.6016 1.45316 12.9956 2.54729 14.0898C3.64141 15.1839 5.03541 15.929 6.553 16.2309C8.07059 16.5327 9.64362 16.3778 11.0732 15.7857C12.5027 15.1935 13.7245 14.1908 14.5842 12.9042C15.4438 11.6177 15.9027 10.1051 15.9027 8.55778C15.9027 6.48289 15.0784 4.49297 13.6113 3.0258C12.1441 1.55862 10.1542 0.734375 8.07927 0.734375ZM11.3964 5.24066C10.9616 4.80375 10.4447 4.45716 9.87538 4.22085C9.30608 3.98454 8.69566 3.86317 8.07927 3.86374V8.55778L4.76215 11.8749C5.19188 12.3361 5.71011 12.706 6.28591 12.9626C6.86171 13.2191 7.48328 13.3571 8.11355 13.3682C8.74382 13.3793 9.36988 13.2634 9.95437 13.0273C10.5389 12.7912 11.0698 12.4398 11.5156 11.9941C11.9613 11.5483 12.3127 11.0174 12.5488 10.4329C12.7849 9.84839 12.9008 9.22234 12.8897 8.59207C12.8786 7.96179 12.7406 7.34022 12.484 6.76442C12.2275 6.18862 11.8576 5.6704 11.3964 5.24066ZM1.82054 8.55778C1.82054 9.79564 2.18761 11.0057 2.87533 12.0349C3.56305 13.0642 4.54053 13.8664 5.68416 14.3401C6.82779 14.8138 8.08621 14.9377 9.30029 14.6963C10.5144 14.4548 11.6296 13.8587 12.5049 12.9834C13.3802 12.1081 13.9762 10.9929 14.2177 9.7788C14.4592 8.56473 14.3353 7.30631 13.8616 6.16267C13.3879 5.01904 12.5857 4.04156 11.5564 3.35384C10.5272 2.66612 9.31713 2.29906 8.07927 2.29906C6.41935 2.29906 4.82742 2.95846 3.65368 4.1322C2.47994 5.30593 1.82054 6.89787 1.82054 8.55778Z" fill="#191919"/>
</svg>
