<svg width="35" height="29" viewBox="0 0 35 29" fill="none" xmlns="http://www.w3.org/2000/svg">
<path d="M26.2121 7.4565C25.7294 7.36078 25.3342 7.06058 25.13 6.63131C22.8696 1.88753 17.6298 -0.764981 12.3929 0.195086C7.62125 1.06524 3.88062 4.8533 3.08292 9.62318C2.84667 11.0314 2.86417 12.441 3.13104 13.8144C3.21854 14.2625 3.02458 14.7614 2.62646 15.1211C0.956667 16.6308 0 18.7815 0 21.0236C0 25.4208 3.59771 29 8.02083 29H24.0625C30.0942 29 35 24.1214 35 18.1231C35 12.953 31.3046 8.46588 26.2121 7.4565ZM22.0515 16.9731C21.7671 17.2559 21.3937 17.398 21.0204 17.398C20.6471 17.398 20.2737 17.2559 19.9894 16.9731L17.5 14.4975V21.7487C17.5 22.5507 16.8467 23.199 16.0417 23.199C15.2367 23.199 14.5833 22.5507 14.5833 21.7487V14.4975L12.094 16.9731C11.5237 17.5401 10.6021 17.5401 10.0319 16.9731C9.46167 16.406 9.46167 15.4894 10.0319 14.9224L13.9796 10.9966C14.5425 10.4368 15.2819 10.1554 16.0212 10.1511L16.0417 10.1467L16.0621 10.1511C16.8029 10.1554 17.5408 10.4368 18.1037 10.9966L22.0515 14.9224C22.6217 15.4894 22.6217 16.406 22.0515 16.9731Z" fill="#1E1E1E"/>
</svg>
